{"title":"Winter Olympics 2014 Opening Ceremony - No Commentary (Russian B","uid":9626210,"size":9174592418,"categoryP":"video","categoryS":"hd___tv_shows","magnet":"?xt=urn:btih:5afb22a699b39815d0872f2a9c2dab973684535d&amp;dn=Winter+Olympics+2014+Opening+Ceremony+-+No+Commentary+%28Russian+B&amp;tr=udp%3A%2F%2Ftracker.openbittorrent.com%3A80&amp;tr=udp%3A%2F%2Fopen.demonii.com%3A1337&amp;tr=udp%3A%2F%2Ftracker.coppersurfer.tk%3A6969&amp;tr=udp%3A%2F%2Fexodus.desync.com%3A6969","seeders":3,"leechers":0,"uploader":"fju14","files":1,"time":1392596464,"description":"Cheers to the peeps who original uploaded the 1080i OBS HD FEED, the Channel One 1080i and the NTV+ 1080i.\n\nThis is IMO the superior version of the broadcast, with the editing undertaken by the creative team behind the ceremony (i.e. the Russian host broadcaster). And yes the 5th ring does open in this version. Anyway, compare this and the OBS (international - i.e. any non-Russian upload) versions and see what you think.\n\nScreens:\n\nFormat                           : MPEG-4\nFormat profile                   : Base Media / Version 2\nCodec ID                         : mp42\nFile size                        : 8.54 GiB\nDuration                         : 3h 5mn\nOverall bit rate                 : 6 583 Kbps\nEncoded date                     : UTC 2014-02-14 21:00:25\nTagged date                      : UTC 2014-02-14 21:06:16\n\nVideo\nID                               : 1\nFormat                           : AVC\nFormat/Info                      : Advanced Video Codec\nFormat profile                   : &lt;a class=&quot;__cf_email__&quot; href=&quot;/cdn-cgi/l/email-protection&quot; data-cfemail=&quot;6c210d05022c205f425e&quot;&gt;[email&amp;#160;protected]&lt;/a&gt;&lt;script cf-hash='f9e31' type=&quot;text/javascript&quot;&gt;\n/* &lt;![CDATA[ */!function(){try{var t=&quot;currentScript&quot;in document?document.currentScript:function(){for(var t=document.getElementsByTagName(&quot;script&quot;),e=t.length;e--;)if(t[e].getAttribute(&quot;cf-hash&quot;))return t[e]}();if(t&amp;&amp;t.previousSibling){var e,r,n,i,c=t.previousSibling,a=c.getAttribute(&quot;data-cfemail&quot;);if(a){for(e=&quot;&quot;,r=parseInt(a.substr(0,2),16),n=2;a.length-n;n+=2)i=parseInt(a.substr(n,2),16)^r,e+=String.fromCharCode(i);e=document.createTextNode(e),c.parentNode.replaceChild(e,c)}}}catch(u){}}();/* ]]&gt; */&lt;/script&gt;\nFormat settings, CABAC           : Yes\nFormat settings, ReFrames        : 3 frames\nCodec ID                         : avc1\nCodec ID/Info                    : Advanced Video Coding\nDuration                         : 3h 5mn\nBit rate mode                    : Variable\nBit rate                         : 6 261 Kbps\nMaximum bit rate                 : 10 000 Kbps\nWidth                            : 1 280 pixels\nHeight                           : 720 pixels\nDisplay aspect ratio             : 16:9\nFrame rate mode                  : Constant\nFrame rate                       : 25.000 fps\nStandard                         : PAL\nColor space                      : YUV\nChroma subsampling               : 4:2:0\nBit depth                        : 8 bits\nScan type                        : Progressive\nBits/(Pixel*Frame)               : 0.272\nStream size                      : 8.13 GiB (95%)\nLanguage                         : English\nEncoded date                     : UTC 2014-02-14 21:00:25\nTagged date                      : UTC 2014-02-14 21:00:25\n\nAudio\nID                               : 2\nFormat                           : AAC\nFormat/Info                      : Advanced Audio Codec\nFormat profile                   : LC\nCodec ID                         : 40\nDuration                         : 3h 5mn\nBit rate mode                    : Variable\nBit rate                         : 317 Kbps\nMaximum bit rate                 : 464 Kbps\nChannel(s)                       : 2 channels\nChannel positions                : Front: L R\nSampling rate                    : 48.0 KHz\nCompression mode                 : Lossy\nStream size                      : 422 MiB (5%)\nLanguage                         : English\nEncoded date                     : UTC 2014-02-14 21:00:25\nTagged date                      : UTC 2014-02-14 21:00:25\n","torrent":{"xt":"urn:btih:5afb22a699b39815d0872f2a9c2dab973684535d","amp;dn":"Winter+Olympics+2014+Opening+Ceremony+-+No+Commentary+%28Russian+B","amp;tr":["udp%3A%2F%2Ftracker.openbittorrent.com%3A80","udp%3A%2F%2Fopen.demonii.com%3A1337","udp%3A%2F%2Ftracker.coppersurfer.tk%3A6969","udp%3A%2F%2Fexodus.desync.com%3A6969"],"infoHash":"5afb22a699b39815d0872f2a9c2dab973684535d","infoHashBuffer":{"type":"Buffer","data":[90,251,34,166,153,179,152,21,208,135,47,42,156,45,171,151,54,132,83,93]},"announce":[],"urlList":[]}}